<?xml version="1.0" encoding="UTF-8" standalone="no"?>
<!-- Created with Inkscape (http://www.inkscape.org/) -->

<svg
   xmlns:dc="http://purl.org/dc/elements/1.1/"
   xmlns:cc="http://creativecommons.org/ns#"
   xmlns:rdf="http://www.w3.org/1999/02/22-rdf-syntax-ns#"
   xmlns:svg="http://www.w3.org/2000/svg"
   xmlns="http://www.w3.org/2000/svg"
   xmlns:sodipodi="http://sodipodi.sourceforge.net/DTD/sodipodi-0.dtd"
   xmlns:inkscape="http://www.inkscape.org/namespaces/inkscape"
   width="1444.832"
   height="596.48016"
   id="svg2"
   version="1.1"
   inkscape:version="0.48.3.1 r9886"
   sodipodi:docname="data-raw.svg">
  <defs
     id="defs4">
    <marker
       inkscape:stockid="Arrow1Lend"
       orient="auto"
       refY="0"
       refX="0"
       id="Arrow1Lend"
       style="overflow:visible">
      <path
         id="path3859"
         d="M 0,0 5,-5 -12.5,0 5,5 0,0 z"
         style="fill-rule:evenodd;stroke:#000000;stroke-width:1pt"
         transform="matrix(-0.8,0,0,-0.8,-10,0)"
         inkscape:connector-curvature="0" />
    </marker>
  </defs>
  <sodipodi:namedview
     id="base"
     pagecolor="#ffffff"
     bordercolor="#666666"
     borderopacity="1.0"
     inkscape:pageopacity="0.0"
     inkscape:pageshadow="2"
     inkscape:zoom="0.49497475"
     inkscape:cx="627.43108"
     inkscape:cy="385.36362"
     inkscape:document-units="px"
     inkscape:current-layer="layer1"
     showgrid="false"
     fit-margin-top="5"
     fit-margin-left="5"
     fit-margin-right="5"
     fit-margin-bottom="5"
     inkscape:window-width="1280"
     inkscape:window-height="737"
     inkscape:window-x="0"
     inkscape:window-y="0"
     inkscape:window-maximized="1" />
  <metadata
     id="metadata7">
    <rdf:RDF>
      <cc:Work
         rdf:about="">
        <dc:format>image/svg+xml</dc:format>
        <dc:type
           rdf:resource="http://purl.org/dc/dcmitype/StillImage" />
        <dc:title />
      </cc:Work>
    </rdf:RDF>
  </metadata>
  <g
     inkscape:label="Calque 1"
     inkscape:groupmode="layer"
     id="layer1"
     transform="translate(208.11771,-207.66773)">
    <g
       id="g4488"
       transform="translate(-277.14285,205.71428)">
      <rect
         y="164.6479"
         x="402"
         height="201"
         width="303.74509"
         id="rect4478"
         style="color:#000000;fill:#ffffff;fill-opacity:1;fill-rule:nonzero;stroke:#000000;stroke-width:1.92895758;stroke-linecap:square;stroke-linejoin:round;stroke-miterlimit:4;stroke-opacity:1;stroke-dasharray:none;stroke-dashoffset:0;marker:none;visibility:visible;display:inline;overflow:visible;enable-background:accumulate" />
      <g
         style="font-size:50px;font-style:normal;font-variant:normal;font-weight:normal;font-stretch:normal;text-align:justify;line-height:125%;letter-spacing:0px;word-spacing:0px;text-anchor:start;fill:#000000;fill-opacity:1;stroke:none;font-family:Exo;-inkscape-font-specification:Exo"
         id="text4480">
        <path
           d="m 435.28571,190.3979 4.95,0 0,13.4 c 0,7.04999 2.75,9.45 6.6,9.45 l 4.4,0 0,-2.65 c -0.35,0 -4.45,-1.05 -4.45,-1.05 -1.7,-0.4 -2.85,-1.40001 -2.85,-5.75 l 0,-13.4 7.75,0 0,-3.7 -7.75,0 0,-7.4 -2.8,0 -0.9,7.4 -4.95,0.9 0,2.8"
           id="path4498"
           inkscape:connector-curvature="0" />
        <path
           d="m 456.18524,213.2979 3.7,0 0,-26.55 -3.7,0 0,26.55 m -0.5,-30.85 c 0,0.7 0.5,1.15 1.2,1.15 l 2.5,0 c 0.7,0 1.15,-0.4 1.15,-1.15 l 0,-2.7 c 0,-0.7 -0.4,-1.25 -1.15,-1.25 l -2.5,0 c -0.8,0 -1.2,0.5 -1.2,1.25 l 0,2.7"
           id="path4500"
           inkscape:connector-curvature="0" />
        <path
           d="m 466.03479,213.2979 3.7,0 0,-20.35 c 3.85,-1.85 5.6,-2.8 9.45,-2.8 2.6,0 4.55,1.9 4.55,4.85 l 0,18.3 3.7,0 0,-18.4 0,-1.95 c 3.3,-2.15 5.85,-2.8 9.8,-2.8 2.6,0 4.5,1.9 4.5,4.85 l 0,18.3 3.7,0 0,-18.3 c 0,-5.1 -3.6,-8.55 -8.2,-8.55 -4.45,0 -8.1,1.75 -10.7,3.9 -1.15,-2.45 -4.1,-3.9 -7.35,-3.9 -3.95,0 -6.4,1.75 -9.45,3.5 l -1.1,-3.2 -2.6,0 0,26.55"
           id="path4502"
           inkscape:connector-curvature="0" />
        <path
           d="m 513.63634,198.3979 c 0,-8.09999 2.30001,-8.15 7.95,-8.15 5.39999,0 6.4,0.45 6.4,5.7 0,1.65 -0.95,2.45 -3.15,2.45 l -11.2,0 m -3.7,1.5 c 0,10.39999 2.00001,13.65 8.75,13.65 4.15,0 8.45,-0.25 12.5,-1.4 l 0,-2.8 c -3.75,0.55 -7.9,0.5 -12.5,0.5 -3.9,0 -5.05,-1.55001 -5.05,-7.8 l 11.2,0 c 4.8,0 6.85,-2.25001 6.85,-6.1 0,-8.79999 -3.90001,-9.4 -10.15,-9.4 -8.19999,0 -11.6,1.50001 -11.6,13.35"
           id="path4504"
           inkscape:connector-curvature="0" />
        <path
           d="m 437.28571,266.3479 c 0,7.04999 2.75,9.45 6.6,9.45 l 4.4,0 0,-2.65 c -0.35,0 -4.45,-1.05 -4.45,-1.05 -1.7,-0.4 -2.85,-1.40001 -2.85,-5.75 l 0,-29.7 -3.7,0 0,29.7"
           id="path4506"
           inkscape:connector-curvature="0" />
        <path
           d="m 454.48613,269.2479 0,-2.5 c 0,-1.6 0.8,-3.05 2.95,-3.25 l 11.1,-0.8 0,7.15 c 0,0 -7.1,2.55 -11.1,2.55 -1.7,0 -2.95,-0.75001 -2.95,-3.15 m -3.7,0.25 c 0,4.24999 3.00001,6.6 6.65,6.6 4.55,0 11,-3.5 11.1,-3.5 l 0.95,3.2 2.75,0 0,-19.35 c 0,-5.5 -3.5,-7.75 -7.65,-7.7 -4.94999,0.05 -9.4,0.5 -12.95,1.5 l 0,2.7 c 4.85,-0.35 9.20001,-0.6 12.8,-0.6 2.5,0 4.1,1.05 4.1,4.1 0.05,0.05 0,3.35 0,3.35 0,0.05 -11.1,0 -11.1,0 -4.14999,0 -6.65,2.65 -6.65,6.65 l 0,3.05"
           id="path4508"
           inkscape:connector-curvature="0" />
        <path
           d="m 475.73676,252.8979 4.95,0 0,13.4 c 0,7.04999 2.75,9.45 6.6,9.45 l 4.4,0 0,-2.65 c -0.35,0 -4.45,-1.05 -4.45,-1.05 -1.7,-0.4 -2.85,-1.40001 -2.85,-5.75 l 0,-13.4 7.75,0 0,-3.7 -7.75,0 0,-7.4 -2.8,0 -0.9,7.4 -4.95,0.9 0,2.8"
           id="path4510"
           inkscape:connector-curvature="0" />
        <path
           d="m 496.63629,275.7979 3.7,0 0,-26.55 -3.7,0 0,26.55 m -0.5,-30.85 c 0,0.7 0.5,1.15 1.2,1.15 l 2.5,0 c 0.7,0 1.15,-0.4 1.15,-1.15 l 0,-2.7 c 0,-0.7 -0.4,-1.25 -1.15,-1.25 l -2.5,0 c -0.8,0 -1.2,0.5 -1.2,1.25 l 0,2.7"
           id="path4512"
           inkscape:connector-curvature="0" />
        <path
           d="m 504.48584,252.8979 4.95,0 0,13.4 c 0,7.04999 2.75,9.45 6.6,9.45 l 4.4,0 0,-2.65 c -0.35,0 -4.45,-1.05 -4.45,-1.05 -1.7,-0.4 -2.85,-1.40001 -2.85,-5.75 l 0,-13.4 7.75,0 0,-3.7 -7.75,0 0,-7.4 -2.8,0 -0.9,7.4 -4.95,0.9 0,2.8"
           id="path4514"
           inkscape:connector-curvature="0" />
        <path
           d="m 524.88538,267.7479 c 0,4.39999 2.9,8.5 8.2,8.5 4.04999,0 6.75,-1.8 9.8,-3.55 l 1.1,3.1 2.6,0 0,-26.55 -3.7,0 0,20.45 c -3.85,1.85 -5.80001,2.85 -9.8,2.85 -2.55,0 -4.5,-1.50001 -4.5,-4.8 l 0,-18.5 -3.7,0 0,18.5"
           id="path4516"
           inkscape:connector-curvature="0" />
        <path
           d="m 555.78569,262.6479 c 0,-8.14999 1.85001,-10.1 5.05,-10.1 3.85,0 6.35001,0.4 9.8,1.3 l 0,16.25 c -2.69999,1.1 -5.85,2.3 -9.8,2.3 -3.24999,0 -5.05,-3.25001 -5.05,-9.75 m -3.7,0 c 0,6.09999 1.50001,13.45 8.75,13.45 3.4,0 8.5,-2.3 9.8,-3.25 l 1,2.95 2.65,0 0,-39.25 -3.65,0 0,14.3 c -3.19999,-1.3 -7.55,-2 -9.8,-2 -7.54999,0 -8.75,7 -8.75,13.8"
           id="path4518"
           inkscape:connector-curvature="0" />
        <path
           d="m 583.48497,260.8979 c 0,-8.09999 2.30001,-8.15 7.95,-8.15 5.4,0 6.4,0.45 6.4,5.7 0,1.65 -0.95,2.45 -3.15,2.45 l -11.2,0 m -3.7,1.5 c 0,10.39999 2.00001,13.65 8.75,13.65 4.15,0 8.45001,-0.25 12.5,-1.4 l 0,-2.8 c -3.74999,0.55 -7.9,0.5 -12.5,0.5 -3.89999,0 -5.05,-1.55001 -5.05,-7.8 l 11.2,0 c 4.8,0 6.85,-2.25001 6.85,-6.1 0,-8.79999 -3.9,-9.4 -10.15,-9.4 -8.19999,0 -11.6,1.50001 -11.6,13.35"
           id="path4520"
           inkscape:connector-curvature="0" />
        <path
           d="m 437.28571,328.8479 c 0,7.04999 2.75,9.45 6.6,9.45 l 4.4,0 0,-2.65 c -0.35,0 -4.45,-1.05 -4.45,-1.05 -1.7,-0.4 -2.85,-1.40001 -2.85,-5.75 l 0,-29.7 -3.7,0 0,29.7"
           id="path4522"
           inkscape:connector-curvature="0" />
        <path
           d="m 452.98723,325.3979 c 0,-9.54999 2.40001,-10.2 8,-10.2 5.85,0 8,0.70001 8,10.2 0,8.74999 -2.6,9.45 -8,9.45 -5.14999,0 -8,-0.60001 -8,-9.45 m -3.7,0 c 0,9.49999 2.75001,13.15 11.7,13.15 8.94999,0 11.7,-3.30001 11.7,-13.15 0,-10.54999 -2.75001,-13.9 -11.7,-13.9 -8.69999,0 -11.7,3.05001 -11.7,13.9"
           id="path4524"
           inkscape:connector-curvature="0" />
        <path
           d="m 478.18689,338.2979 3.7,0 0,-20.45 c 3.85,-1.85 5.8,-2.85 9.8,-2.85 2.55,0 4.5,1.5 4.5,4.8 l 0,18.5 3.7,0 0,-18.5 c 0,-4.4 -2.90001,-8.5 -8.2,-8.5 -4.05,0 -6.75,1.8 -9.8,3.55 l -1.1,-3.1 -2.6,0 0,26.55"
           id="path4526"
           inkscape:connector-curvature="0" />
        <path
           d="m 508.53721,321.0979 c 0,-2.75 0.85,-5.75 4.95,-5.75 l 4.5,0 c 3.94999,0 4.75,2.25 4.9,5.75 0.1,2.34999 -0.85001,6.05 -4.85,6.05 l -4.9,0 c -3.85,0 -4.6,-3.60001 -4.6,-6.05 m -0.2,23 0,-6.75 c 0,0 0.7,0.4 2.25,0.4 l 9.95,0 c 2.89999,0 3.4,1.1 3.4,3.45 l 0,2.9 c 0,2.34999 -0.85001,4 -3.8,4 l -7.5,0 c -1.75,0 -4.3,-0.35001 -4.3,-4 m -3.55,-11.55 c 0,1.35 0.45,3.05 1.85,4.05 l -2,3.25 0,4.25 c 0,5.19999 3.3,7.7 8,7.7 l 7.5,0 c 6.54999,0 7.5,-4.70001 7.5,-7.7 l 0,-3.15 c 0,-4.15 -2.30001,-6.9 -6.45,-6.9 l -10.65,0 c -1.1,0 -2.05,-0.4 -2.05,-1.7 0,-1.3 1.25,-1.5 2.05,-1.5 l 7.8,0 c 7.09999,0 8.25,-6.75001 8.25,-9.75 0,-3.65 -1,-4.7 -1.55,-5.75 l 4.05,-0.9 0,-2.8 -15.6,0 c -5.35,0 -8.65,3.1 -8.65,9.45 0,2.64999 0.7,5.9 2.9,7.3 -2.05,0.4 -2.95,2.5 -2.95,4.15"
           id="path4528"
           inkscape:connector-curvature="0" />
        <path
           d="m 533.08649,338.2979 3.7,0 0,-26.55 -3.7,0 0,26.55 m -0.5,-30.85 c 0,0.7 0.5,1.15 1.2,1.15 l 2.5,0 c 0.7,0 1.15,-0.4 1.15,-1.15 l 0,-2.7 c 0,-0.7 -0.4,-1.25 -1.15,-1.25 l -2.5,0 c -0.8,0 -1.2,0.5 -1.2,1.25 l 0,2.7"
           id="path4530"
           inkscape:connector-curvature="0" />
        <path
           d="m 540.93604,315.3979 4.95,0 0,13.4 c 0,7.04999 2.75,9.45 6.6,9.45 l 4.4,0 0,-2.65 c -0.35,0 -4.45,-1.05 -4.45,-1.05 -1.7,-0.4 -2.85,-1.40001 -2.85,-5.75 l 0,-13.4 7.75,0 0,-3.7 -7.75,0 0,-7.4 -2.8,0 -0.9,7.4 -4.95,0.9 0,2.8"
           id="path4532"
           inkscape:connector-curvature="0" />
        <path
           d="m 561.33557,330.2479 c 0,4.39999 2.90001,8.5 8.2,8.5 4.05,0 6.75,-1.8 9.8,-3.55 l 1.1,3.1 2.6,0 0,-26.55 -3.7,0 0,20.45 c -3.84999,1.85 -5.8,2.85 -9.8,2.85 -2.55,0 -4.5,-1.50001 -4.5,-4.8 l 0,-18.5 -3.7,0 0,18.5"
           id="path4534"
           inkscape:connector-curvature="0" />
        <path
           d="m 592.23589,325.1479 c 0,-8.14999 1.85,-10.1 5.05,-10.1 3.84999,0 6.35,0.4 9.8,1.3 l 0,16.25 c -2.7,1.1 -5.85001,2.3 -9.8,2.3 -3.25,0 -5.05,-3.25001 -5.05,-9.75 m -3.7,0 c 0,6.09999 1.50001,13.45 8.75,13.45 3.4,0 8.5,-2.3 9.8,-3.25 l 1,2.95 2.65,0 0,-39.25 -3.65,0 0,14.3 c -3.2,-1.3 -7.55,-2 -9.8,-2 -7.54999,0 -8.75,7 -8.75,13.8"
           id="path4536"
           inkscape:connector-curvature="0" />
        <path
           d="m 619.93517,323.3979 c 0,-8.09999 2.3,-8.15 7.95,-8.15 5.39999,0 6.4,0.45 6.4,5.7 0,1.65 -0.95,2.45 -3.15,2.45 l -11.2,0 m -3.7,1.5 c 0,10.39999 2.00001,13.65 8.75,13.65 4.14999,0 8.45,-0.25 12.5,-1.4 l 0,-2.8 c -3.75,0.55 -7.90001,0.5 -12.5,0.5 -3.9,0 -5.05,-1.55001 -5.05,-7.8 l 11.2,0 c 4.79999,0 6.85,-2.25001 6.85,-6.1 0,-8.79999 -3.90001,-9.4 -10.15,-9.4 -8.19999,0 -11.6,1.50001 -11.6,13.35"
           id="path4538"
           inkscape:connector-curvature="0" />
      </g>
    </g>
    <path
       style="fill:none;stroke:#000000;stroke-width:2;stroke-linecap:butt;stroke-linejoin:miter;stroke-miterlimit:4;stroke-opacity:1;stroke-dasharray:none;marker-end:none"
       d="m -49.285663,313.40781 1277.142863,0"
       id="path3832"
       inkscape:connector-curvature="0" />
    <rect
       style="color:#000000;fill:#fad042;fill-opacity:1;fill-rule:nonzero;stroke:#000000;stroke-width:3;stroke-linecap:square;stroke-linejoin:round;stroke-miterlimit:4;stroke-opacity:1;stroke-dasharray:none;stroke-dashoffset:0;marker:none;visibility:visible;display:inline;overflow:visible;enable-background:accumulate"
       id="rect2985"
       width="85.714287"
       height="85.714287"
       x="-19.999947"
       y="270.55066" />
    <rect
       style="color:#000000;fill:#fad042;fill-opacity:1;fill-rule:nonzero;stroke:#000000;stroke-width:3;stroke-linecap:square;stroke-linejoin:round;stroke-miterlimit:4;stroke-opacity:1;stroke-dasharray:none;stroke-dashoffset:0;marker:none;visibility:visible;display:inline;overflow:visible;enable-background:accumulate"
       id="rect2985-4"
       width="85.714287"
       height="85.714287"
       x="234.00006"
       y="270.55066" />
    <rect
       style="color:#000000;fill:#fad042;fill-opacity:1;fill-rule:nonzero;stroke:#000000;stroke-width:3;stroke-linecap:square;stroke-linejoin:round;stroke-miterlimit:4;stroke-opacity:1;stroke-dasharray:none;stroke-dashoffset:0;marker:none;visibility:visible;display:inline;overflow:visible;enable-background:accumulate"
       id="rect2985-8"
       width="85.714287"
       height="85.714287"
       x="625.57141"
       y="270.55066" />
    <rect
       style="color:#000000;fill:#fad042;fill-opacity:1;fill-rule:nonzero;stroke:#000000;stroke-width:3;stroke-linecap:square;stroke-linejoin:round;stroke-miterlimit:4;stroke-opacity:1;stroke-dasharray:none;stroke-dashoffset:0;marker:none;visibility:visible;display:inline;overflow:visible;enable-background:accumulate"
       id="rect2985-3"
       width="85.714287"
       height="85.714287"
       x="885.42865"
       y="270.55066" />
    <path
       id="smartphone-4-icon"
       d="m -109.87739,212.66773 h -77.10234 c -8.91354,0 -16.13798,7.22492 -16.13798,16.13797 v 169.2042 c 0,8.91305 7.22444,16.13797 16.13798,16.13797 h 77.10234 c 8.91354,0 16.137967,-7.22492 16.137967,-16.13797 V 228.8057 c 0,-8.91305 -7.224427,-16.13797 -16.137967,-16.13797 z m -47.10919,14.77945 h 18.09409 c 1.08027,0 1.95612,0.87585 1.95612,1.95612 0,1.08026 -0.87585,1.95612 -1.95612,1.95612 h -18.09409 c -1.08026,0 -1.95612,-0.87586 -1.95612,-1.95612 0,-1.08027 0.87586,-1.95612 1.95612,-1.95612 z m 9.04802,177.43652 c -4.32204,0 -7.82447,-3.50292 -7.82447,-7.82448 0,-4.32155 3.50243,-7.82447 7.82447,-7.82447 4.32009,0 7.82448,3.50292 7.82448,7.82447 0,4.32156 -3.50439,7.82448 -7.82448,7.82448 z m 41.9333,-24.11209 h -84.84563 V 246.04399 h 84.84563 v 134.72762 z"
       inkscape:connector-curvature="0"
       style="fill:#fad042;fill-opacity:1" />
    <path
       style="fill:none;stroke:#000000;stroke-width:2;stroke-linecap:butt;stroke-linejoin:miter;stroke-miterlimit:4;stroke-opacity:1;stroke-dasharray:none;marker-end:none"
       d="m -46.428553,630.43359 1277.142853,0"
       id="path3832-6"
       inkscape:connector-curvature="0" />
    <rect
       style="color:#000000;fill:#7842fa;fill-opacity:1;fill-rule:nonzero;stroke:#000000;stroke-width:3;stroke-linecap:square;stroke-linejoin:round;stroke-miterlimit:4;stroke-opacity:1;stroke-dasharray:none;stroke-dashoffset:0;marker:none;visibility:visible;display:inline;overflow:visible;enable-background:accumulate"
       id="rect2985-5"
       width="85.714287"
       height="85.714287"
       x="107.14285"
       y="587.57642" />
    <rect
       style="color:#000000;fill:#7842fa;fill-opacity:1;fill-rule:nonzero;stroke:#000000;stroke-width:3;stroke-linecap:square;stroke-linejoin:round;stroke-miterlimit:4;stroke-opacity:1;stroke-dasharray:none;stroke-dashoffset:0;marker:none;visibility:visible;display:inline;overflow:visible;enable-background:accumulate"
       id="rect2985-4-8"
       width="85.714287"
       height="85.714287"
       x="366"
       y="587.57642" />
    <rect
       style="color:#000000;fill:#7842fa;fill-opacity:1;fill-rule:nonzero;stroke:#000000;stroke-width:3;stroke-linecap:square;stroke-linejoin:round;stroke-miterlimit:4;stroke-opacity:1;stroke-dasharray:none;stroke-dashoffset:0;marker:none;visibility:visible;display:inline;overflow:visible;enable-background:accumulate"
       id="rect2985-8-7"
       width="85.714287"
       height="85.714287"
       x="628.42853"
       y="587.57642" />
    <rect
       style="color:#000000;fill:#7842fa;fill-opacity:1;fill-rule:nonzero;stroke:#000000;stroke-width:3;stroke-linecap:square;stroke-linejoin:round;stroke-miterlimit:4;stroke-opacity:1;stroke-dasharray:none;stroke-dashoffset:0;marker:none;visibility:visible;display:inline;overflow:visible;enable-background:accumulate"
       id="rect2985-3-1"
       width="85.714287"
       height="85.714287"
       x="1015.4286"
       y="587.57642" />
    <path
       id="smartphone-4-icon-2"
       d="m -109.87739,529.69351 h -77.10234 c -8.91354,0 -16.13798,7.22492 -16.13798,16.13797 v 169.2042 c 0,8.91305 7.22444,16.13797 16.13798,16.13797 h 77.10234 c 8.91354,0 16.137967,-7.22492 16.137967,-16.13797 v -169.2042 c 0,-8.91305 -7.224427,-16.13797 -16.137967,-16.13797 z m -47.10919,14.77945 h 18.09409 c 1.08027,0 1.95612,0.87585 1.95612,1.95612 0,1.08026 -0.87585,1.95612 -1.95612,1.95612 h -18.09409 c -1.08026,0 -1.95612,-0.87586 -1.95612,-1.95612 0,-1.08027 0.87586,-1.95612 1.95612,-1.95612 z m 9.04802,177.43652 c -4.32204,0 -7.82447,-3.50292 -7.82447,-7.82448 0,-4.32155 3.50243,-7.82447 7.82447,-7.82447 4.32009,0 7.82448,3.50292 7.82448,7.82447 0,4.32156 -3.50439,7.82448 -7.82448,7.82448 z m 41.9333,-24.11209 h -84.84563 V 563.06977 h 84.84563 v 134.72762 z"
       inkscape:connector-curvature="0"
       style="fill:#7842fa;fill-opacity:1" />
    <path
       style="fill:none;stroke:#000000;stroke-width:1px;stroke-linecap:butt;stroke-linejoin:miter;stroke-opacity:1"
       d="m 773.99998,175.43867 0,114.59723 -239.82631,0"
       id="path5396"
       inkscape:connector-type="orthogonal"
       inkscape:connector-curvature="0"
       inkscape:connection-start="#rect2985-8"
       inkscape:connection-start-point="d4"
       inkscape:connection-end="#g4488"
       inkscape:connection-end-point="d4"
       transform="translate(-105.57143,180.82628)" />
    <path
       style="fill:none;stroke:#000000;stroke-width:3;stroke-linecap:butt;stroke-linejoin:miter;stroke-miterlimit:4;stroke-opacity:1;stroke-dasharray:none;marker-end:none"
       d="m 150.07142,797.64787 0,-40"
       id="path5404"
       inkscape:connector-curvature="0" />
    <path
       style="fill:none;stroke:#000000;stroke-width:3;stroke-linecap:butt;stroke-linejoin:miter;stroke-miterlimit:4;stroke-opacity:1;stroke-dasharray:none;marker-end:none"
       d="m 20.42857,797.64787 0,-40"
       id="path5404-5"
       inkscape:connector-curvature="0" />
    <path
       style="fill:none;stroke:#000000;stroke-width:3;stroke-linecap:butt;stroke-linejoin:miter;stroke-miterlimit:4;stroke-opacity:1;stroke-dasharray:none;marker-end:none"
       d="m 279.71428,797.64787 0,-40"
       id="path5404-7"
       inkscape:connector-curvature="0" />
    <path
       style="fill:none;stroke:#000000;stroke-width:3;stroke-linecap:butt;stroke-linejoin:miter;stroke-miterlimit:4;stroke-opacity:1;stroke-dasharray:none;marker-end:none"
       d="m 409.35716,797.64787 0,-40"
       id="path5404-74"
       inkscape:connector-curvature="0" />
    <path
       style="fill:none;stroke:#000000;stroke-width:3;stroke-linecap:butt;stroke-linejoin:miter;stroke-miterlimit:4;stroke-opacity:1;stroke-dasharray:none;marker-end:none"
       d="m 538.99998,797.64787 0,-40"
       id="path5404-2"
       inkscape:connector-curvature="0" />
    <path
       style="fill:none;stroke:#000000;stroke-width:3;stroke-linecap:butt;stroke-linejoin:miter;stroke-miterlimit:4;stroke-opacity:1;stroke-dasharray:none;marker-end:none"
       d="m 668.6428,797.64787 0,-40"
       id="path5404-70"
       inkscape:connector-curvature="0" />
    <path
       style="fill:none;stroke:#000000;stroke-width:3;stroke-linecap:butt;stroke-linejoin:miter;stroke-miterlimit:4;stroke-opacity:1;stroke-dasharray:none;marker-end:none"
       d="m 798.28563,797.64787 0,-40"
       id="path5404-78"
       inkscape:connector-curvature="0" />
    <path
       style="fill:none;stroke:#000000;stroke-width:3;stroke-linecap:butt;stroke-linejoin:miter;stroke-miterlimit:4;stroke-opacity:1;stroke-dasharray:none;marker-end:none"
       d="m 927.92845,797.64787 0,-40"
       id="path5404-28"
       inkscape:connector-curvature="0" />
    <path
       style="fill:none;stroke:#000000;stroke-width:3;stroke-linecap:butt;stroke-linejoin:miter;stroke-miterlimit:4;stroke-opacity:1;stroke-dasharray:none;marker-end:none"
       d="m 1057.5713,797.64787 0,-40"
       id="path5404-28-6"
       inkscape:connector-curvature="0" />
    <path
       style="fill:none;stroke:#000000;stroke-width:3;stroke-linecap:butt;stroke-linejoin:miter;stroke-miterlimit:4;stroke-opacity:1;stroke-dasharray:none;marker-end:url(#Arrow1Lend)"
       d="m -46.714287,777.64787 1252.857187,0"
       id="path5484"
       inkscape:connector-curvature="0"
       sodipodi:nodetypes="cc" />
  </g>
</svg>
